<svg width="24" height="24" viewBox="0 0 24 24" fill="none" xmlns="http://www.w3.org/2000/svg">
<g id="facebook-2" opacity="0.25">
<path id="Combined Shape" fill-rule="evenodd" clip-rule="evenodd" d="M12 24C18.6274 24 24 18.6274 24 12C24 5.37258 18.6274 0 12 0C5.37258 0 0 5.37258 0 12C0 18.6274 5.37258 24 12 24ZM9.90195 9.55465V7.54216C9.90195 7.53469 9.90192 7.52635 9.90189 7.51719C9.90025 7.0752 9.89148 4.71092 13.0053 4.71106H15.2489V7.27305H13.5987C13.2723 7.27305 12.9422 7.61128 12.9422 7.86256V9.54538H15.2456C15.1534 10.8354 14.963 12.0157 14.963 12.0157H12.9306V19.3282H9.90195V12.0157H8.42756V9.55465H9.90195Z" fill="#333333"/>
</g>
</svg>
