<svg width="18" height="20" viewBox="0 0 18 20" fill="none" xmlns="http://www.w3.org/2000/svg">
<path fill-rule="evenodd" clip-rule="evenodd" d="M17.7433 17.8155C18.0872 18.1704 18.0853 18.7348 17.7391 19.0874C17.3804 19.4526 16.7914 19.4506 16.4352 19.0831L12.965 15.5015C11.6188 16.4916 9.96602 17.0761 8.18091 17.0761C3.67003 17.0761 0 13.3438 0 8.75748C0 4.17112 3.66958 0.4375 8.18047 0.4375C12.6914 0.4375 16.3614 4.16976 16.3614 8.75612C16.3614 10.8676 15.5838 12.7979 14.3045 14.2668L17.7433 17.8155ZM8.18114 1.73828C4.37476 1.73828 1.27734 4.88784 1.27734 8.75829C1.27734 12.6287 4.37387 15.7783 8.18114 15.7783C11.9884 15.7783 15.0849 12.6297 15.0849 8.75829C15.0849 4.88693 11.9889 1.73828 8.18114 1.73828Z" fill="#003087"/>
</svg>
