<svg width="32" height="32" viewBox="0 0 32 32" fill="none" xmlns="http://www.w3.org/2000/svg">
<g id="twitter-2" opacity="0.25">
<path id="Combined Shape" fill-rule="evenodd" clip-rule="evenodd" d="M31.9659 15.9627C31.9659 7.14729 24.8196 0 16.0032 0C7.18683 0 0.0405273 7.14729 0.0405273 15.9627C0.0405273 24.7791 7.18672 31.9254 16.0032 31.9254C24.8196 31.9254 31.9659 24.7792 31.9659 15.9627ZM23.7463 11.3496C24.5333 11.2577 25.2837 11.0552 25.981 10.754C25.4593 11.5122 24.7997 12.1766 24.0416 12.7075L24.0526 13.1964C24.0526 18.1848 20.1397 23.9393 12.9844 23.9393C10.7866 23.9393 8.7433 23.3137 7.02035 22.2423C7.32566 22.2771 7.63492 22.2951 7.94922 22.2951C9.77191 22.2951 11.4491 21.6925 12.7809 20.6789C11.0779 20.6489 9.64117 19.5575 9.14637 18.057C9.38385 18.1019 9.62725 18.1248 9.87766 18.1248C10.2328 18.1248 10.5761 18.0779 10.9023 17.9921C9.12248 17.6449 7.78166 16.1194 7.78166 14.2897V14.2419C8.30736 14.5261 8.90604 14.6948 9.54451 14.7147C8.50089 14.0392 7.81454 12.882 7.81454 11.573C7.81454 10.8806 8.0061 10.2332 8.34133 9.6755C10.2588 11.9591 13.1261 13.4627 16.3585 13.6203C16.2918 13.3439 16.2578 13.0556 16.2578 12.7592C16.2578 10.6742 17.9997 8.98509 20.1467 8.98509C21.266 8.98509 22.2767 9.44306 22.986 10.1763C23.8729 10.0078 24.7051 9.69347 25.4573 9.2595C25.167 10.1423 24.5504 10.8816 23.7463 11.3496Z" fill="#333333"/>
</g>
</svg>
