<svg width="50" height="50" viewBox="0 0 50 50" fill="none" xmlns="http://www.w3.org/2000/svg">
<path fill-rule="evenodd" clip-rule="evenodd" d="M24.9385 49.877C38.7117 49.877 49.877 38.7117 49.877 24.9385C49.877 11.1653 38.7117 0 24.9385 0C11.1653 0 0 11.1653 0 24.9385C0 38.7117 11.1653 49.877 24.9385 49.877ZM20.5794 19.8596V15.6772C20.5794 15.6617 20.5793 15.6443 20.5793 15.6253C20.5759 14.7068 20.5576 9.79328 27.0288 9.79359H31.6916V15.1179H28.2621C27.5836 15.1179 26.8976 15.8208 26.8976 16.343V19.8403H31.6845C31.4931 22.5212 31.0974 24.9741 31.0974 24.9741H26.8737V40.1711H20.5794V24.9741H17.5153V19.8596H20.5794Z" fill="#FAF8F5"/>
</svg>
