<svg width="24" height="24" viewBox="0 0 24 24" fill="none" xmlns="http://www.w3.org/2000/svg">
<g opacity="0.25">
<path fill-rule="evenodd" clip-rule="evenodd" d="M24 12C24 5.373 18.6277 0 12 0C5.37225 0 0 5.373 0 12C0 18.6277 5.37217 24 12 24C18.6277 24 24 18.6278 24 12ZM17.8223 8.53134C18.414 8.4623 18.9781 8.31005 19.5023 8.08358C19.11 8.65359 18.6143 9.15309 18.0443 9.55216L18.0526 9.91967C18.0526 13.6697 15.111 17.9957 9.73203 17.9957C8.07982 17.9957 6.54378 17.5254 5.24854 16.72C5.47806 16.7462 5.71054 16.7597 5.94682 16.7597C7.31703 16.7597 8.57783 16.3067 9.57905 15.5447C8.2988 15.5221 7.21875 14.7016 6.84678 13.5736C7.02531 13.6074 7.20828 13.6246 7.39653 13.6246C7.66354 13.6246 7.92156 13.5894 8.16682 13.5249C6.82882 13.2639 5.82086 12.1171 5.82086 10.7416V10.7056C6.21605 10.9193 6.66612 11.0461 7.14608 11.0611C6.36154 10.5533 5.84557 9.68331 5.84557 8.69932C5.84557 8.17882 5.98958 7.69209 6.24159 7.27284C7.68306 8.98956 9.83856 10.1199 12.2686 10.2383C12.2184 10.0306 12.1928 9.81381 12.1928 9.59104C12.1928 8.02361 13.5023 6.75382 15.1163 6.75382C15.9578 6.75382 16.7175 7.0981 17.2508 7.64933C17.9175 7.52263 18.5431 7.28635 19.1086 6.96011C18.8903 7.6238 18.4268 8.17956 17.8223 8.53134Z" fill="#333333"/>
</g>
</svg>
