<svg width="127" height="31" viewBox="0 0 127 31" fill="none" xmlns="http://www.w3.org/2000/svg">
<path d="M45.1003 25.1726C49.4186 25.1726 52.2708 22.6936 53.417 20.0013C53.4703 19.8681 53.4969 19.7614 53.4969 19.6815C53.4969 19.3882 53.2837 19.2816 52.9371 19.2816H50.6181C50.2982 19.2816 50.085 19.4149 49.8984 19.7081C48.9654 21.1209 47.4993 22.2671 45.2336 22.2671C41.4484 22.2671 39.156 19.255 39.156 15.2832C39.156 11.3381 41.3418 8.27269 45.1269 8.27269C47.2861 8.27269 48.9388 9.31228 49.8717 11.0183C50.0316 11.3381 50.2449 11.4714 50.5914 11.4714H53.0438C53.3903 11.4714 53.6035 11.3115 53.6035 11.0449C53.6035 10.9649 53.5769 10.8583 53.5502 10.7784C52.3774 7.55298 49.4186 5.36719 45.1536 5.36719C39.3959 5.36719 35.6641 9.6588 35.6641 15.2832C35.6641 20.9343 39.4226 25.1726 45.1003 25.1726Z" fill="#003087"/>
<path d="M59.4499 25.066C61.7157 25.066 63.315 24.0797 64.0881 22.9335C64.0881 23.44 64.1147 23.8931 64.168 24.2396C64.1947 24.6128 64.4346 24.7994 64.8078 24.7994H66.5671C66.9402 24.7994 67.1535 24.6928 67.1535 24.3996C67.1535 24.2663 67.1002 24.053 67.0735 23.8664C66.9669 22.9335 66.9136 22.0005 66.9136 20.4545V16.5361C66.9136 11.7646 64.5412 10.3519 61.1292 10.3519C57.9572 10.3519 55.9313 11.9246 55.3182 14.057C55.2649 14.2436 55.1849 14.5369 55.1849 14.7234C55.1849 15.0167 55.3449 15.1766 55.7714 15.1766H57.664C58.0371 15.1766 58.2237 14.99 58.3304 14.6168C58.6236 13.5772 59.4766 12.8842 61.0493 12.8842C62.8885 12.8842 63.7149 13.7638 63.7682 16.0829C63.6082 16.1096 61.7423 16.2695 60.5695 16.4561C57.584 16.8826 54.4652 17.9755 54.4652 20.9076C54.4652 23.5466 56.5444 25.066 59.4499 25.066ZM60.3562 22.7469C58.8901 22.7469 57.9305 22.1072 57.9305 20.8277C57.9305 19.3349 59.5565 18.8285 63.1018 18.4286L63.8215 18.3487C63.7948 18.6152 63.7948 18.9084 63.7948 18.9351C63.7948 21.3075 62.7019 22.7469 60.3562 22.7469Z" fill="#003087"/>
<path d="M70.161 24.7994H72.1868C72.5867 24.7994 72.7999 24.5862 72.7999 24.1863V18.1887C72.7999 15.3099 73.3864 13.4973 75.4655 13.4973C75.892 13.4973 76.1053 13.5772 76.3185 13.5772C76.6384 13.5772 76.7717 13.3373 76.7717 13.0175V11.0982C76.7717 10.6184 76.4518 10.4585 75.9453 10.4585C74.346 10.4585 73.0398 11.2582 72.56 12.6709C72.5867 12.3777 72.5867 12.0578 72.5867 11.738V11.4181C72.5867 11.0183 72.3734 10.805 71.9736 10.805H70.1343C69.7345 10.805 69.5479 11.0183 69.5479 11.4181V24.1863C69.5479 24.5862 69.7611 24.7994 70.161 24.7994Z" fill="#003087"/>
<path d="M84.2343 25.2259C87.353 25.2259 89.4588 23.6265 90.4184 21.7073C90.605 21.3341 90.605 21.2542 90.605 21.1742C90.605 20.9609 90.3651 20.801 90.0186 20.801H87.9927C87.6729 20.801 87.4596 20.9343 87.2464 21.2008C86.6333 22.0272 85.6737 22.5336 84.3142 22.5336C82.0485 22.5336 80.5024 20.881 80.2892 18.5886L90.3918 18.6152C90.765 18.6152 91.0315 18.402 91.0315 18.0021V17.7356C91.0315 13.6572 88.6591 10.3252 84.1809 10.3252C79.916 10.3252 77.0371 13.4973 77.0371 17.7622C77.0371 22.1338 79.8627 25.2259 84.2343 25.2259ZM80.3958 16.2695C80.6623 14.057 82.1284 12.8575 84.1543 12.8575C86.2335 12.8575 87.5662 14.3503 87.7795 16.2695H80.3958Z" fill="#003087"/>
<path d="M99.111 25.2259C102.23 25.2259 104.336 23.6265 105.295 21.7073C105.482 21.3341 105.482 21.2542 105.482 21.1742C105.482 20.9609 105.242 20.801 104.895 20.801H102.869C102.55 20.801 102.336 20.9343 102.123 21.2008C101.51 22.0272 100.55 22.5336 99.1909 22.5336C96.9252 22.5336 95.3791 20.881 95.1659 18.5886L105.268 18.6152C105.642 18.6152 105.908 18.402 105.908 18.0021V17.7356C105.908 13.6572 103.536 10.3252 99.0576 10.3252C94.7927 10.3252 91.9138 13.4973 91.9138 17.7622C91.9138 22.1338 94.7394 25.2259 99.111 25.2259ZM95.2725 16.2695C95.5391 14.057 97.0051 12.8575 99.031 12.8575C101.11 12.8575 102.443 14.3503 102.656 16.2695H95.2725Z" fill="#003087"/>
<path d="M108.283 24.7994H110.309C110.709 24.7994 110.922 24.5862 110.922 24.1863V18.1887C110.922 15.3099 111.509 13.4973 113.588 13.4973C114.014 13.4973 114.228 13.5772 114.441 13.5772C114.761 13.5772 114.894 13.3373 114.894 13.0175V11.0982C114.894 10.6184 114.574 10.4585 114.068 10.4585C112.468 10.4585 111.162 11.2582 110.682 12.6709C110.709 12.3777 110.709 12.0578 110.709 11.738V11.4181C110.709 11.0183 110.496 10.805 110.096 10.805H108.257C107.857 10.805 107.67 11.0183 107.67 11.4181V24.1863C107.67 24.5862 107.883 24.7994 108.283 24.7994Z" fill="#003087"/>
<path d="M121.231 25.2259C124.483 25.2259 126.802 23.3866 126.802 20.6144C126.802 18.2154 125.39 17.2291 122.511 16.4827L120.965 16.0829C119.552 15.7097 118.806 15.3898 118.806 14.4835C118.806 13.6305 119.525 12.9375 120.965 12.9375C122.138 12.9375 123.017 13.4173 123.47 14.2703C123.657 14.5635 123.844 14.7234 124.19 14.7234H125.896C126.243 14.7234 126.483 14.5902 126.483 14.2969C126.483 14.2436 126.483 14.1637 126.456 14.057C125.976 11.738 123.817 10.3519 121.045 10.3519C117.926 10.3519 115.66 12.1112 115.66 14.6701C115.66 17.2291 117.473 18.1887 119.739 18.8018L121.285 19.2283C122.724 19.6281 123.764 19.8947 123.764 20.881C123.764 21.9472 122.671 22.6136 121.285 22.6136C119.899 22.6136 118.886 21.9739 118.432 20.881C118.273 20.5344 118.059 20.3745 117.713 20.3745H115.82C115.5 20.3745 115.26 20.5078 115.26 20.7744C115.26 20.9076 115.287 20.9876 115.367 21.2542C116.14 23.8398 118.006 25.2259 121.231 25.2259Z" fill="#003087"/>
<g clip-path="url(#clip0_62665_2172)">
<path d="M21.3436 8.07312C21.3945 7.74791 21.4225 7.42633 21.4285 7.10839C20.3291 6.53198 19.0391 6.20312 17.6242 6.20312H9.84933C9.41004 6.20312 9.03507 6.52349 8.96712 6.95671L7.5 16.2569C7.56796 15.8225 7.94293 15.5034 8.38221 15.5034H12.6792C17.0029 15.5034 20.6725 12.3483 21.3436 8.07434V8.07312Z" fill="#001C64"/>
<path d="M7.49984 16.2567L6.15165 24.8022L5.30584 30.1634C5.23667 30.6039 5.57645 31.0019 6.02302 31.0019H10.6865C11.1258 31.0019 11.5007 30.6816 11.5687 30.2483L12.798 22.4565C12.8659 22.022 13.2409 21.7029 13.6802 21.7029H16.4263C20.75 21.7029 24.4196 18.5478 25.0907 14.2739C25.5664 11.2389 24.0386 8.4782 21.4272 7.10938C21.4211 7.42731 21.3932 7.74889 21.3422 8.07411C20.6711 12.3493 17.0015 15.5031 12.6778 15.5031H8.38084C7.94156 15.5031 7.56659 15.8235 7.49863 16.2567" fill="#0070E0"/>
<path d="M6.15409 24.8002H0.726118C0.280764 24.8002 -0.0602283 24.4022 0.00894105 23.9617L3.66885 0.753582C3.7368 0.31915 4.11178 0 4.55106 0H13.8768C18.2927 0 21.5036 3.21334 21.4284 7.10624C20.329 6.52983 19.039 6.20097 17.6241 6.20097H9.8504C9.41112 6.20097 9.03615 6.52133 8.96819 6.95455L7.50107 16.2548L6.15288 24.8002H6.15409Z" fill="#003087"/>
</g>
<defs>
<clipPath id="clip0_62665_2172">
<rect width="25.1789" height="31" fill="white"/>
</clipPath>
</defs>
</svg>
