<svg width="51" height="51" viewBox="0 0 51 51" fill="none" xmlns="http://www.w3.org/2000/svg">
<path d="M30.3809 25.5039C30.3809 28.1996 28.1957 30.3848 25.5 30.3848C22.8043 30.3848 20.6191 28.1996 20.6191 25.5039C20.6191 22.8082 22.8043 20.623 25.5 20.623C28.1957 20.623 30.3809 22.8082 30.3809 25.5039Z" fill="#FAF8F5"/>
<path fill-rule="evenodd" clip-rule="evenodd" d="M36.9142 16.8675C36.6796 16.2317 36.3053 15.6562 35.8189 15.1838C35.3465 14.6974 34.7714 14.3231 34.1353 14.0885C33.6193 13.8881 32.8442 13.6496 31.4166 13.5846C29.8723 13.5142 29.4093 13.499 25.4996 13.499C21.5895 13.499 21.1265 13.5138 19.5826 13.5842C18.155 13.6496 17.3795 13.8881 16.8639 14.0885C16.2278 14.3231 15.6523 14.6974 15.1803 15.1838C14.6939 15.6562 14.3196 16.2313 14.0846 16.8675C13.8842 17.3834 13.6457 18.1589 13.5807 19.5865C13.5103 21.1304 13.4951 21.5935 13.4951 25.5035C13.4951 29.4132 13.5103 29.8762 13.5807 31.4205C13.6457 32.8481 13.8842 33.6232 14.0846 34.1392C14.3196 34.7754 14.6935 35.3504 15.1799 35.8228C15.6523 36.3092 16.2274 36.6835 16.8635 36.9181C17.3795 37.1189 18.155 37.3574 19.5826 37.4224C21.1265 37.4928 21.5892 37.5076 25.4992 37.5076C29.4097 37.5076 29.8727 37.4928 31.4162 37.4224C32.8438 37.3574 33.6193 37.1189 34.1353 36.9181C35.4123 36.4255 36.4216 35.4162 36.9142 34.1392C37.1146 33.6232 37.3531 32.8481 37.4185 31.4205C37.4889 29.8762 37.5037 29.4132 37.5037 25.5035C37.5037 21.5935 37.4889 21.1304 37.4185 19.5865C37.3535 18.1589 37.115 17.3834 36.9142 16.8675ZM25.5009 33.0234C21.348 33.0234 17.9815 29.6573 17.9815 25.5044C17.9815 21.3516 21.348 17.9855 25.5009 17.9855C29.6533 17.9855 33.0198 21.3516 33.0198 25.5044C33.0198 29.6573 29.6533 33.0234 25.5009 33.0234ZM31.5563 17.6867C31.5563 18.6571 32.343 19.4439 33.3134 19.4439C34.2839 19.4439 35.0702 18.6571 35.0706 17.6867C35.0706 16.7163 34.2839 15.9295 33.3134 15.9295C32.343 15.9295 31.5563 16.7163 31.5563 17.6867Z" fill="#FAF8F5"/>
<path fill-rule="evenodd" clip-rule="evenodd" d="M0 25.5C0 11.4189 11.4189 0 25.5 0C39.5811 0 51 11.4189 51 25.5C51 39.5811 39.5811 51 25.5 51C11.4189 51 0 39.5811 0 25.5ZM39.3737 35.0873C39.7356 34.1558 39.9835 33.0916 40.0543 31.5329C40.1259 29.9714 40.1426 29.4726 40.1426 25.496C40.1426 21.5194 40.1259 21.0206 40.0547 19.4591C39.9835 17.9004 39.736 16.8362 39.3737 15.9047C39.0064 14.9277 38.4298 14.0429 37.6851 13.3114C36.9535 12.5663 36.0683 11.9896 35.0913 11.6219C34.1598 11.2604 33.0956 11.013 31.5369 10.9422C29.9754 10.8706 29.4766 10.8534 25.5 10.8534C21.5234 10.8534 21.0246 10.8706 19.4632 10.9418C17.9044 11.013 16.8402 11.2604 15.9087 11.6223C14.9317 11.99 14.0465 12.5663 13.3154 13.3114C12.5703 14.0425 11.9936 14.9277 11.6259 15.9047C11.2641 16.8362 11.0166 17.9004 10.9458 19.4591C10.8742 21.0206 10.8574 21.5194 10.8574 25.496C10.8574 29.4726 10.8742 29.9714 10.9462 31.5333C11.017 33.0916 11.2648 34.1562 11.6267 35.0873C11.9944 36.0643 12.5707 36.9495 13.3154 37.6807C14.0469 38.4258 14.9317 39.002 15.9091 39.3697C16.8402 39.7316 17.9048 39.9791 19.4632 40.0503C21.025 40.1215 21.5234 40.1386 25.5004 40.1386C29.477 40.1386 29.9758 40.1215 31.5373 40.0503C33.0956 39.9791 34.1602 39.7316 35.0913 39.3697C37.0582 38.609 38.6131 37.0542 39.3737 35.0873Z" fill="#FAF8F5"/>
</svg>
