<svg width="32" height="32" viewBox="0 0 32 32" fill="none" xmlns="http://www.w3.org/2000/svg">
<g id="linkedin-2" opacity="0.25">
<path id="Combined Shape" fill-rule="evenodd" clip-rule="evenodd" d="M15.7468 31.774C24.4435 31.774 31.4936 24.7239 31.4936 16.0272C31.4936 7.33048 24.4435 0.280396 15.7468 0.280396C7.05009 0.280396 0 7.33048 0 16.0272C0 24.7239 7.05009 31.774 15.7468 31.774ZM7.59754 8.96465C7.59754 7.85419 8.43992 7.009 9.7275 7.009C11.0154 7.009 11.8067 7.85419 11.8316 8.96465C11.8316 10.0515 11.0154 10.9211 9.70252 10.9211H9.6781C8.4155 10.9211 7.59754 10.0515 7.59754 8.96465ZM25.1553 23.7865V17.2945C25.1553 13.818 23.2987 12.2 20.8224 12.2C18.8224 12.2 17.9303 13.3004 17.4301 14.07V12.4658H13.6656C13.7161 13.5277 13.6656 23.7863 13.6656 23.7863H17.4298V17.4637C17.4298 17.1244 17.4554 16.7884 17.5544 16.5464C17.8273 15.8693 18.4451 15.1701 19.4851 15.1701C20.8479 15.1701 21.3914 16.2087 21.3914 17.7296V23.7865H25.1553ZM17.4301 14.07V14.1071H17.4051C17.4087 14.1007 17.4134 14.0942 17.4181 14.0876C17.4223 14.0818 17.4265 14.076 17.4301 14.07ZM7.82185 23.7865H11.5847V12.4658H7.82185V23.7865Z" fill="#333333"/>
</g>
</svg>
