<svg width="24" height="25" viewBox="0 0 24 25" fill="none" xmlns="http://www.w3.org/2000/svg">
<path fill-rule="evenodd" clip-rule="evenodd" d="M12 24.3506C18.6274 24.3506 24 18.978 24 12.3506C24 5.72317 18.6274 0.350586 12 0.350586C5.37258 0.350586 0 5.72317 0 12.3506C0 18.978 5.37258 24.3506 12 24.3506ZM5.79021 6.96824C5.79021 6.12201 6.43216 5.47792 7.41337 5.47792C8.39479 5.47792 8.99781 6.12201 9.01685 6.96824C9.01685 7.79651 8.39479 8.4592 7.39433 8.4592H7.37572C6.41355 8.4592 5.79021 7.79651 5.79021 6.96824ZM19.1698 18.2643V13.3169C19.1698 10.6677 17.755 9.43467 15.8679 9.43467C14.3438 9.43467 13.664 10.2732 13.2828 10.8597V9.63725H10.414C10.4525 10.4465 10.414 18.2641 10.414 18.2641H13.2826V13.4459C13.2826 13.1873 13.302 12.9313 13.3775 12.7469C13.5855 12.2309 14.0563 11.6981 14.8488 11.6981C15.8874 11.6981 16.3015 12.4895 16.3015 13.6485V18.2643H19.1698ZM13.2828 10.8597V10.888H13.2637C13.2655 10.8848 13.2677 10.8816 13.27 10.8783C13.2712 10.8766 13.2724 10.8749 13.2736 10.8731C13.2768 10.8687 13.2801 10.8643 13.2828 10.8597ZM5.96063 18.2627H8.82811V9.63567H5.96063V18.2627Z" fill="#009CDE"/>
</svg>
