<svg width="51" height="51" viewBox="0 0 51 51" fill="none" xmlns="http://www.w3.org/2000/svg">
<path fill-rule="evenodd" clip-rule="evenodd" d="M25.0965 50.1929C38.9569 50.1929 50.1929 38.9569 50.1929 25.0965C50.1929 11.2361 38.9569 0 25.0965 0C11.2361 0 0 11.2361 0 25.0965C0 38.9569 11.2361 50.1929 25.0965 50.1929ZM12.1085 13.8428C12.1085 12.073 13.4511 10.7259 15.5031 10.7259C17.5557 10.7259 18.8168 12.073 18.8566 13.8428C18.8566 15.575 17.5557 16.9609 15.4633 16.9609H15.4244C13.4121 16.9609 12.1085 15.575 12.1085 13.8428ZM40.0903 37.4636V27.1169C40.0903 21.5762 37.1314 18.9976 33.1847 18.9976C29.9972 18.9976 28.5755 20.7513 27.7782 21.978V19.4213H21.7786C21.8591 21.1137 21.7786 37.4632 21.7786 37.4632H27.7778V27.3867C27.7778 26.8458 27.8185 26.3103 27.9764 25.9247C28.4113 24.8456 29.3959 23.7312 31.0534 23.7312C33.2254 23.7312 34.0915 25.3865 34.0915 27.8103V37.4636H40.0903ZM27.7782 21.978V22.037H27.7384C27.7441 22.0268 27.7516 22.0165 27.7592 22.006C27.7658 21.9968 27.7726 21.9874 27.7782 21.978ZM12.4631 37.4623H18.4601V19.42H12.4631V37.4623Z" fill="#FAF8F5"/>
</svg>
