<svg width="21" height="11" viewBox="0 0 21 11" fill="none" xmlns="http://www.w3.org/2000/svg">
<path d="M4.74985 0.17052L0.124996 5.09301L0.124996 5.15864C0.0624981 5.22428 0.0624981 5.28991 0 5.28991L0 5.35554C0 5.42118 0 5.48681 0 5.48681C0 5.55244 0 5.61808 0.0624981 5.68371C0.124996 5.74934 0.124996 5.81498 0.187494 5.88061L4.74985 10.8031C4.99985 11.0656 5.37483 11.0656 5.62483 10.8031C5.87482 10.5406 5.87482 10.1468 5.62483 9.88424L1.99994 6.07751L19.8748 6.07751C20.2498 6.07751 20.4998 5.81498 20.4998 5.42118C20.4998 5.02738 20.2498 4.76484 19.8748 4.76484L2.06244 4.76484L5.68733 0.958119C5.93732 0.695586 5.87482 0.236153 5.62483 0.0392536C5.37483 -0.0263797 4.99985 -0.0263801 4.74985 0.17052Z" fill="white"/>
</svg>
