<svg width="24" height="24" viewBox="0 0 24 24" fill="none" xmlns="http://www.w3.org/2000/svg">
<g id="plus-4" opacity="0.3">
<path id="Shape" fill-rule="evenodd" clip-rule="evenodd" d="M0 12C0 5.37931 5.39535 0 12.0103 0C18.6253 0 24 5.37931 24 12C24 18.6207 18.6253 24 12.0103 24C5.37468 24 0 18.6207 0 12ZM1.69502 12C1.69502 17.6897 6.32551 22.3242 12.0103 22.3242C17.695 22.3242 22.3255 17.6897 22.3255 12C22.3255 6.31039 17.695 1.67591 12.0103 1.67591C6.32551 1.67591 1.69502 6.31039 1.69502 12Z" fill="#333333"/>
<path id="Path" d="M17.5298 11.0486H12.8579V6.35206C12.8579 5.8762 12.4858 5.50378 12.0104 5.50378C11.5349 5.50378 11.1628 5.8762 11.1628 6.35206V11.0279H6.49101C6.01556 11.0279 5.64346 11.4003 5.64346 11.8762C5.64346 12.3521 6.01556 12.7245 6.49101 12.7245H11.1628V17.4003C11.1628 17.8762 11.5349 18.2486 12.0104 18.2486C12.4858 18.2486 12.8579 17.8762 12.8579 17.4003V12.7245H17.5298C18.0052 12.7245 18.3773 12.3521 18.3773 11.8762C18.3773 11.4003 18.0052 11.0486 17.5298 11.0486Z" fill="#333333"/>
</g>
</svg>
