<svg width="34" height="34" viewBox="0 0 34 34" fill="none" xmlns="http://www.w3.org/2000/svg">
<path d="M17.0214 0.010255V0H16.3689C12.7558 0 9.38147 1.14287 6.61011 3.30497C3.97097 5.36509 1.98776 8.24619 0.875916 11.6372L0.837163 11.7545L0.828615 11.7523C0.779035 11.9044 0.732304 12.0582 0.687283 12.212L0.679875 12.2343C0.238213 13.748 0 15.3489 0 17.0051C0 26.3913 7.6114 34 16.9997 34C26.388 34 33.9994 26.3908 33.9994 17.0051C33.9994 7.61949 26.4006 0.0222192 17.0214 0.010255ZM7.41707 4.33788C9.78837 2.48742 12.6458 1.45223 15.7169 1.32347L15.7386 5.9502C13.3034 6.20259 11.261 7.07711 9.66015 8.55498C8.44686 9.67506 7.46038 11.1569 6.65457 13.0729L2.32742 11.4515C3.38684 8.56637 5.13753 6.11656 7.41707 4.33788ZM16.9997 26.8437C11.5641 26.8437 7.15778 22.4386 7.15778 17.0046C7.15778 16.1938 7.25694 15.4059 7.44215 14.6522L7.63648 14.1457C8.41039 12.1266 9.36324 10.6128 10.5497 9.51781C12.0776 8.10774 14.0027 7.35229 16.4361 7.20815L17.0556 7.17169V7.16656C22.4655 7.19676 26.8417 11.5893 26.8417 17.0046C26.8417 22.4198 22.4353 26.8437 16.9997 26.8437Z" fill="#003087"/>
</svg>
