<svg width="24" height="24" viewBox="0 0 24 24" fill="none" xmlns="http://www.w3.org/2000/svg">
<path fill-rule="evenodd" clip-rule="evenodd" d="M12 0C5.3736 0 0 5.3736 0 12C0 18.6264 5.3736 24 12 24C18.6264 24 24 18.6264 24 12C24 5.3736 18.6264 0 12 0ZM17.2617 17.1784C17.5497 17.1784 17.7993 17.0806 18.0114 16.8874L14.3816 13.1528C14.2945 13.2169 14.2101 13.2793 14.1303 13.3386C13.8587 13.5446 13.6382 13.7052 13.4689 13.8204C13.2997 13.9358 13.0745 14.0534 12.7933 14.1735C12.512 14.2937 12.2499 14.3536 12.0068 14.3536H11.9997H11.9926C11.7494 14.3536 11.4873 14.2937 11.2061 14.1735C10.9248 14.0534 10.6996 13.9358 10.5304 13.8204C10.3612 13.7052 10.1408 13.5446 9.86905 13.3386C9.79331 13.2815 9.70932 13.2188 9.61851 13.1518L5.98798 16.8874C6.20009 17.0806 6.4498 17.1784 6.73777 17.1784H17.2617ZM5.5938 10.161C5.80349 10.4014 6.04436 10.6148 6.31598 10.8011C7.3284 11.5089 8.15307 12.0917 8.79311 12.5514L5.5938 15.843V10.161ZM17.6908 10.8011C16.717 11.4792 15.8893 12.063 15.2077 12.5527L18.4057 15.8432V10.161C18.2007 10.3965 17.9624 10.6098 17.6908 10.8011ZM6.73817 6.82153H17.2621C17.5719 6.82153 17.8401 6.93679 18.0666 7.16718C18.2928 7.39786 18.4061 7.67482 18.4061 7.9985C18.4061 8.3859 18.2892 8.75615 18.056 9.10912C17.8224 9.46209 17.5318 9.7638 17.1838 10.0138C16.027 10.8399 15.1541 11.4635 14.5614 11.8872C14.2356 12.1199 13.9933 12.2932 13.8379 12.4045C13.8148 12.4212 13.7788 12.4476 13.731 12.4829C13.6794 12.5208 13.6142 12.5692 13.534 12.6289C13.379 12.7442 13.2504 12.8373 13.1479 12.9085C13.0452 12.9795 12.9214 13.0592 12.776 13.1475C12.6306 13.2359 12.4936 13.302 12.3649 13.3461C12.2362 13.3902 12.117 13.4123 12.0074 13.4123H12.0003H11.9932C11.8836 13.4123 11.7645 13.3902 11.6358 13.3461C11.5071 13.302 11.37 13.2357 11.2246 13.1475C11.0792 13.0592 10.9552 12.9797 10.8528 12.9085C10.7503 12.8373 10.6216 12.7442 10.4667 12.6289C10.3863 12.5692 10.3211 12.5208 10.2696 12.4828L10.2644 12.4789C10.2191 12.4457 10.1849 12.4205 10.1628 12.4045C9.96324 12.2601 9.72151 12.0861 9.44122 11.8852C9.11238 11.6492 8.72972 11.3758 8.28969 11.062C7.47457 10.481 6.98599 10.1316 6.82398 10.0138C6.52845 9.80788 6.24958 9.52477 5.9875 9.16433C5.72542 8.80375 5.59432 8.46907 5.59432 8.16018C5.59432 7.77777 5.69311 7.45891 5.89101 7.20394C6.08876 6.94909 6.37103 6.82153 6.73817 6.82153Z" fill="#333333"/>
</svg>
