<svg width="32" height="32" viewBox="0 0 32 32" fill="none" xmlns="http://www.w3.org/2000/svg">
<g id="facebook-2" opacity="0.25">
<path id="Combined Shape" fill-rule="evenodd" clip-rule="evenodd" d="M15.7375 31.2954C24.3795 31.2954 31.3852 24.2897 31.3852 15.6477C31.3852 7.00571 24.3795 0 15.7375 0C7.09555 0 0.0898438 7.00571 0.0898438 15.6477C0.0898438 24.2897 7.09555 31.2954 15.7375 31.2954ZM13.0021 12.4589V9.83466C13.0021 9.82492 13.0021 9.81405 13.002 9.80211C12.9999 9.22577 12.9885 6.1428 17.0488 6.14299H19.9745V9.48376H17.8226C17.3969 9.48376 16.9665 9.9248 16.9665 10.2525V12.4468H19.97C19.8499 14.1289 19.6016 15.668 19.6016 15.668H16.9514V25.2034H13.0021V15.668H11.0795V12.4589H13.0021Z" fill="#333333"/>
</g>
</svg>
