<svg width="33" height="32" viewBox="0 0 33 32" fill="none" xmlns="http://www.w3.org/2000/svg">
<g id="insta-2" opacity="0.25">
<path id="Path" d="M19.1816 16C19.1816 17.6914 17.8105 19.0625 16.1191 19.0625C14.4277 19.0625 13.0566 17.6914 13.0566 16C13.0566 14.3086 14.4277 12.9375 16.1191 12.9375C17.8105 12.9375 19.1816 14.3086 19.1816 16Z" fill="#333333"/>
<path id="Shape" fill-rule="evenodd" clip-rule="evenodd" d="M23.2812 10.5814C23.134 10.1825 22.8992 9.82141 22.594 9.52502C22.2976 9.21985 21.9368 8.98499 21.5376 8.83777C21.2139 8.71204 20.7275 8.56238 19.8318 8.52161C18.8628 8.47742 18.5723 8.4679 16.1191 8.4679C13.6658 8.4679 13.3752 8.47717 12.4065 8.52136C11.5107 8.56238 11.0242 8.71204 10.7007 8.83777C10.3015 8.98499 9.94043 9.21985 9.64429 9.52502C9.33911 9.82141 9.10425 10.1823 8.95679 10.5814C8.83105 10.9052 8.6814 11.3917 8.64062 12.2875C8.59644 13.2562 8.58691 13.5468 8.58691 16.0001C8.58691 18.4532 8.59644 18.7438 8.64062 19.7128C8.6814 20.6085 8.83105 21.0948 8.95679 21.4186C9.10425 21.8177 9.33887 22.1786 9.64404 22.475C9.94043 22.7802 10.3013 23.015 10.7004 23.1622C11.0242 23.2882 11.5107 23.4379 12.4065 23.4786C13.3752 23.5228 13.6655 23.5321 16.1189 23.5321C18.5725 23.5321 18.863 23.5228 19.8315 23.4786C20.7273 23.4379 21.2139 23.2882 21.5376 23.1622C22.3389 22.8531 22.9722 22.2198 23.2812 21.4186C23.407 21.0948 23.5566 20.6085 23.5977 19.7128C23.6418 18.7438 23.6511 18.4532 23.6511 16.0001C23.6511 13.5468 23.6418 13.2562 23.5977 12.2875C23.5569 11.3917 23.4072 10.9052 23.2812 10.5814ZM16.1186 20.7177C13.5129 20.7177 11.4006 18.6057 11.4006 16C11.4006 13.3943 13.5129 11.2822 16.1186 11.2822C18.7241 11.2822 20.8364 13.3943 20.8364 16C20.8364 18.6057 18.7241 20.7177 16.1186 20.7177ZM19.9205 11.0957C19.9205 11.7046 20.4141 12.1982 21.023 12.1982C21.6319 12.1982 22.1253 11.7046 22.1255 11.0957C22.1255 10.4868 21.6319 9.99313 21.023 9.99313C20.4141 9.99313 19.9205 10.4868 19.9205 11.0957Z" fill="#333333"/>
<path id="Shape_2" fill-rule="evenodd" clip-rule="evenodd" d="M0.119141 16C0.119141 7.16479 7.28394 0 16.1191 0C24.9543 0 32.1191 7.16479 32.1191 16C32.1191 24.8352 24.9543 32 16.1191 32C7.28394 32 0.119141 24.8352 0.119141 16ZM24.8244 22.0181C25.0514 21.4336 25.207 20.7659 25.2514 19.7878C25.2963 18.8081 25.3068 18.4951 25.3068 16C25.3068 13.5049 25.2963 13.1919 25.2516 12.2122C25.207 11.2341 25.0517 10.5664 24.8244 9.98193C24.5939 9.3689 24.2321 8.81372 23.7648 8.35474C23.3058 7.88721 22.7504 7.52539 22.1374 7.29468C21.5529 7.06787 20.8852 6.9126 19.9072 6.86816C18.9274 6.82324 18.6144 6.8125 16.1193 6.8125C13.6242 6.8125 13.3112 6.82324 12.3315 6.86792C11.3534 6.9126 10.6857 7.06787 10.1013 7.29492C9.48821 7.52563 8.93279 7.88721 8.47405 8.35474C8.00653 8.81348 7.64471 9.3689 7.414 9.98193C7.18694 10.5664 7.03167 11.2341 6.98724 12.2122C6.94232 13.1919 6.93182 13.5049 6.93182 16C6.93182 18.4951 6.94232 18.8081 6.98748 19.7881C7.03192 20.7659 7.18743 21.4338 7.41448 22.0181C7.6452 22.6311 8.00677 23.1865 8.47405 23.6453C8.93304 24.1128 9.48821 24.4744 10.1015 24.7051C10.6857 24.9321 11.3537 25.0874 12.3315 25.1321C13.3115 25.1768 13.6242 25.1875 16.1196 25.1875C18.6147 25.1875 18.9277 25.1768 19.9074 25.1321C20.8852 25.0874 21.5532 24.9321 22.1374 24.7051C23.3715 24.2278 24.3471 23.2522 24.8244 22.0181Z" fill="#333333"/>
</g>
</svg>
