<svg width="24" height="24" viewBox="0 0 24 24" fill="none" xmlns="http://www.w3.org/2000/svg">
<g opacity="0.25">
<path d="M14.2969 12C14.2969 13.2686 13.2686 14.2969 12 14.2969C10.7314 14.2969 9.70312 13.2686 9.70312 12C9.70312 10.7314 10.7314 9.70312 12 9.70312C13.2686 9.70312 14.2969 10.7314 14.2969 12Z" fill="#333333"/>
<path fill-rule="evenodd" clip-rule="evenodd" d="M17.3723 7.93671C17.2619 7.63751 17.0858 7.3667 16.8569 7.14441C16.6346 6.91553 16.364 6.73938 16.0646 6.62897C15.8218 6.53467 15.457 6.42242 14.7852 6.39185C14.0585 6.3587 13.8406 6.35156 12.0007 6.35156C10.1607 6.35156 9.94281 6.35852 9.21625 6.39166C8.54443 6.42242 8.1795 6.53467 7.93689 6.62897C7.63751 6.73938 7.3667 6.91553 7.14459 7.14441C6.91571 7.3667 6.73956 7.63733 6.62897 7.93671C6.53467 8.1795 6.42242 8.54443 6.39185 9.21625C6.3587 9.94281 6.35156 10.1607 6.35156 12.0007C6.35156 13.8406 6.3587 14.0585 6.39185 14.7852C6.42242 15.457 6.53467 15.8218 6.62897 16.0646C6.73956 16.364 6.91553 16.6346 7.14441 16.8569C7.3667 17.0858 7.63733 17.2619 7.93671 17.3723C8.1795 17.4668 8.54443 17.579 9.21625 17.6096C9.94281 17.6428 10.1605 17.6497 12.0005 17.6497C13.8408 17.6497 14.0587 17.6428 14.785 17.6096C15.4568 17.579 15.8218 17.4668 16.0646 17.3723C16.6655 17.1405 17.1405 16.6655 17.3723 16.0646C17.4666 15.8218 17.5789 15.457 17.6096 14.7852C17.6428 14.0585 17.6497 13.8406 17.6497 12.0007C17.6497 10.1607 17.6428 9.94281 17.6096 9.21625C17.579 8.54443 17.4668 8.1795 17.3723 7.93671ZM12.0015 15.5387C10.0472 15.5387 8.46299 13.9547 8.46299 12.0004C8.46299 10.0461 10.0472 8.46206 12.0015 8.46206C13.9556 8.46206 15.5398 10.0461 15.5398 12.0004C15.5398 13.9547 13.9556 15.5387 12.0015 15.5387ZM14.8526 8.32217C14.8526 8.77884 15.2229 9.14907 15.6795 9.14907C16.1362 9.14907 16.5063 8.77884 16.5065 8.32217C16.5065 7.86551 16.1362 7.49527 15.6795 7.49527C15.2229 7.49527 14.8526 7.86551 14.8526 8.32217Z" fill="#333333"/>
<path fill-rule="evenodd" clip-rule="evenodd" d="M0 12C0 5.3736 5.3736 0 12 0C18.6264 0 24 5.3736 24 12C24 18.6264 18.6264 24 12 24C5.3736 24 0 18.6264 0 12ZM18.5288 16.5135C18.6991 16.0752 18.8157 15.5744 18.8491 14.8409C18.8828 14.1061 18.8906 13.8713 18.8906 12C18.8906 10.1287 18.8828 9.89392 18.8492 9.15912C18.8157 8.4256 18.6993 7.9248 18.5288 7.48645C18.356 7.02667 18.0846 6.61029 17.7341 6.26605C17.3899 5.91541 16.9733 5.64404 16.5135 5.47101C16.0752 5.3009 15.5744 5.18445 14.8409 5.15112C14.1061 5.11743 13.8713 5.10938 12 5.10938C10.1287 5.10938 9.89392 5.11743 9.15912 5.15094C8.4256 5.18445 7.9248 5.3009 7.48645 5.47119C7.02667 5.64423 6.61011 5.91541 6.26605 6.26605C5.91541 6.61011 5.64404 7.02667 5.47101 7.48645C5.30072 7.9248 5.18427 8.4256 5.15094 9.15912C5.11725 9.89392 5.10938 10.1287 5.10938 12C5.10938 13.8713 5.11725 14.1061 5.15112 14.8411C5.18445 15.5744 5.30109 16.0754 5.47137 16.5135C5.64441 16.9733 5.91559 17.3899 6.26605 17.7339C6.61029 18.0846 7.02667 18.3558 7.48663 18.5288C7.9248 18.6991 8.42578 18.8156 9.15912 18.8491C9.8941 18.8826 10.1287 18.8906 12.0002 18.8906C13.8715 18.8906 14.1063 18.8826 14.8411 18.8491C15.5744 18.8156 16.0754 18.6991 16.5135 18.5288C17.4391 18.1708 18.1708 17.4391 18.5288 16.5135Z" fill="#333333"/>
</g>
</svg>
