<svg width="29" height="24" viewBox="0 0 29 24" fill="none" xmlns="http://www.w3.org/2000/svg">
<circle opacity="0.2" cx="18.5" cy="12" r="10.5" fill="white"/>
<path d="M16.5322 6.29041C16.3035 6.58466 16.3243 7.01008 16.5947 7.2804L20.5653 11.2492L3.25 11.25C2.83579 11.25 2.5 11.5858 2.5 12L2.50505 12.0875C2.54837 12.4605 2.86537 12.75 3.25 12.75L20.563 12.7492L16.5953 16.7198C16.3025 17.0127 16.3026 17.4876 16.5955 17.7804C16.8885 18.0733 17.3634 18.0732 17.6562 17.7802L22.9054 12.5287C23.1983 12.2358 23.1982 11.761 22.9053 11.4681L17.6553 6.2196C17.3623 5.92674 16.8874 5.92681 16.5946 6.21974L16.5322 6.29041Z" fill="white"/>
</svg>
