<svg width="51" height="51" viewBox="0 0 51 51" fill="none" xmlns="http://www.w3.org/2000/svg">
<path fill-rule="evenodd" clip-rule="evenodd" d="M50.8811 25.4406C50.8811 11.391 39.4916 0 25.4404 0C11.3894 0 0 11.391 0 25.4406C0 39.4916 11.3892 50.8811 25.4404 50.8811C39.4916 50.8811 50.8811 39.4918 50.8811 25.4406ZM37.7853 18.0883C39.0397 17.9419 40.2356 17.6191 41.3469 17.139C40.5154 18.3474 39.4643 19.4064 38.256 20.2524L38.2735 21.0316C38.2735 28.9818 32.0373 38.1531 20.6336 38.1531C17.1308 38.1531 13.8744 37.1561 11.1284 35.4485C11.615 35.5041 12.1079 35.5327 12.6088 35.5327C15.5137 35.5327 18.1866 34.5723 20.3093 32.9569C17.5951 32.909 15.3053 31.1696 14.5167 28.7782C14.8952 28.8498 15.2831 28.8863 15.6822 28.8863C16.2483 28.8863 16.7953 28.8115 17.3153 28.6748C14.4787 28.1215 12.3417 25.6902 12.3417 22.7741V22.6978C13.1796 23.1509 14.1337 23.4197 15.1513 23.4515C13.488 22.3749 12.3941 20.5305 12.3941 18.4444C12.3941 17.3409 12.6994 16.309 13.2337 15.4202C16.2897 19.0597 20.8594 21.456 26.0111 21.7072C25.9048 21.2667 25.8506 20.8071 25.8506 20.3349C25.8506 17.0118 28.6268 14.3198 32.0485 14.3198C33.8325 14.3198 35.4432 15.0497 36.5737 16.2184C37.9872 15.9497 39.3134 15.4488 40.5122 14.7572C40.0496 16.1642 39.067 17.3425 37.7853 18.0883Z" fill="#FAF8F5"/>
</svg>
