<svg width="21" height="11" viewBox="0 0 21 11" fill="none" xmlns="http://www.w3.org/2000/svg">
<path d="M15.7499 10.8295L20.3748 5.90699V5.84136C20.4373 5.77572 20.4373 5.71009 20.4998 5.71009V5.64446C20.4998 5.57882 20.4998 5.51319 20.4998 5.51319C20.4998 5.44756 20.4998 5.38192 20.4373 5.31629C20.3748 5.25066 20.3748 5.18502 20.3123 5.11939L15.7499 0.1969C15.4999 -0.0656332 15.1249 -0.0656332 14.8749 0.1969C14.6249 0.459432 14.6249 0.853232 14.8749 1.11576L18.4998 4.92249L0.624935 4.92249C0.249946 4.92249 -4.60683e-05 5.18502 -4.60683e-05 5.57882C-4.60683e-05 5.97262 0.249946 6.23516 0.624935 6.23516L18.4373 6.23516L14.8124 10.0419C14.5624 10.3044 14.6249 10.7638 14.8749 10.9607C15.1249 11.0264 15.4999 11.0264 15.7499 10.8295Z" fill="white"/>
</svg>
